<mxfile host="app.diagrams.net" modified="2022-08-04T02:27:04.451Z" agent="5.0 (X11; Linux x86_64) AppleWebKit/537.36 (KHTML, like Gecko) Chrome/103.0.0.0 Safari/537.36" etag="QK-jMH2BOl_Ln9MiToDS" version="20.2.2" type="github">
  <diagram id="54uESskxdxZRvFl4LkZj" name="層級圖">
    <mxGraphModel dx="1590" dy="773" grid="1" gridSize="10" guides="1" tooltips="1" connect="1" arrows="1" fold="1" page="1" pageScale="1" pageWidth="827" pageHeight="1169" math="0" shadow="0">
      <root>
        <mxCell id="0" />
        <mxCell id="1" parent="0" />
        <mxCell id="-k-0D2QzpojkwivL61-l-17" value="&lt;font style=&quot;font-size: 36px;&quot;&gt;密碼學&lt;/font&gt;" style="rounded=0;whiteSpace=wrap;html=1;" vertex="1" parent="1">
          <mxGeometry x="240" y="440" width="460" height="60" as="geometry" />
        </mxCell>
      </root>
    </mxGraphModel>
  </diagram>
</mxfile>
